<svg version="1.1" viewBox="0 0 178 143" xmlns="http://www.w3.org/2000/svg" xmlns:xlink="http://www.w3.org/1999/xlink">
<defs>
<polygon id="b" points="0.12136 0.252 177.95 0.252 177.95 45.88 0.12136 45.88"/>
</defs>
<g fill="none" fill-rule="evenodd">
<g transform="translate(-631 -90)">
<g transform="translate(631 90)" fill="#fff">
<polyline points="59.644 132.44 62.308 140.67 64.897 132.44 66.837 132.44 63.249 142.81 61.279 142.81 57.648 132.44 59.644 132.44"/>
<polyline points="70.071 132.44 77.497 132.44 77.497 133.95 71.908 133.95 71.908 136.73 77.193 136.73 77.193 138.23 71.908 138.23 71.908 141.28 77.497 141.28 77.497 142.81 70.071 142.81 70.071 132.44"/>
<polyline points="87.358 142.81 82.916 134.53 82.916 142.81 81.134 142.81 81.134 132.44 83.595 132.44 88.039 140.72 88.039 132.44 89.819 132.44 89.819 142.81 87.358 142.81"/>
<g transform="translate(0 97)">
<mask id="a" fill="white">
<use xlink:href="#b"/>
</mask>
<polygon points="94.093 45.812 95.932 45.812 95.932 35.436 94.093 35.436" mask="url(#a)"/>
<path d="m109.17 42.364c-0.43489 2.318-2.1138 3.636-4.5309 3.636-3.0685 0-4.8485-2.162-4.8485-5.412 0-3.262 1.8953-5.338 4.9355-5.338 2.3302 0 3.9949 1.318 4.4156 3.636h-1.7658c-0.31959-1.402-1.3471-2.146-2.7084-2.146-1.6627 0-2.9815 1.344-2.9815 3.848 0 2.52 1.2885 3.922 2.9673 3.922 1.42 0 2.4333-0.728 2.7509-2.146h1.7658" mask="url(#a)"/>
<polyline points="112.88 35.436 120.31 35.436 120.31 36.954 114.72 36.954 114.72 39.73 120 39.73 120 41.234 114.72 41.234 114.72 44.282 120.31 44.282 120.31 45.814 112.88 45.814 112.88 35.436" mask="url(#a)"/>
<path d="m66.562 10.102h-4.1061v-7.424h4.1061c4.1992 0 5.7182 0.262 5.7182 3.704 0 3.48-1.5191 3.72-5.7182 3.72zm8.2305 3.588l-3.7016-2.116c4.2841-0.154 7.2656-0.96 7.2656-5.05 0-3.914-4.0455-5.37-9.614-5.37h-13.898l2.5567 2.196v14.782l-2.5567 2.426h10.172l-2.5608-2.414v-6.53h5.3258l5.5261 8.944h6.9299l-2.844-2.426-2.6012-4.442zm18.304 5.386v-7.462h5.7648l2.488 2.186v-5.878l-2.488 2.18h-5.7648v-7.436h8.7119l4.628 3.768v-5.28h-21.463l2.8702 2.472v14.518l-2.8702 2.414h21.463v-5.268l-4.628 3.786h-8.7119zm58.999-17.922h-10.421l2.5547 2.172v15.068l-2.5547 2.164h10.421l-2.583-2.164v-15.068l2.583-2.172zm10.197 3.224c0-2.152 2.8925-2.784 5.4755-2.784 3.3759 0 6.1289 2.144 6.7883 5.17h2.3322l0.030341-5.988-2.5608 1.288c-1.3168-0.942-4.0677-1.812-6.6244-1.812-4.3125 0-9.5351 1.236-9.5351 6.114 0 6.254 15.907 5.584 15.907 10.578 0 2.442-3.1211 3.174-6.226 3.174-4.001 0-6.4141-2.914-7.027-6.078h-2.5931v6.918l2.6356-1.42c2.3241 1.21 4.2902 1.9 6.8631 1.9 5.698 0 10.195-1.81 10.195-6.298 0-7.568-15.66-6.808-15.66-10.762zm-35.62 6.594l2.5264 1.978v3.414c0 1.8-2.6963 3.254-4.6583 3.254-6.2684 0-7.0067-5.358-7.0067-8.778 0-4.772 1.9196-8.904 7.0128-8.904 4.4095 0 6.2381 2.262 7.7531 5.616h2.1785v-6.398l-2.6053 1.24c-0.93248-0.51-3.0725-1.8-7.2919-1.8-7.6945 0-13.067 3.244-13.067 10.154 0 7.396 5.3178 10.33 12.935 10.33 2.14 0 4.7595-0.72 7.1544-2.116l2.8743 1.616v-7.628l2.5021-1.978h-10.308zm-94.971 9.586l3.382 2.886 3.3739-2.886-3.3739-2.834-3.382 2.834zm-7.4052-14.124l4.6583-3.768h3.5155v10.524l-2.583 2.17h10.389l-2.5952-2.17v-10.524h3.5256l4.6523 3.768v-5.28h-21.562v5.28zm-20.183-2.056c0-2.152 2.8945-2.784 5.4654-2.784 3.386 0 6.1612 2.144 6.7842 5.17h2.3625l0.02225-5.988-2.579 1.288c-1.2986-0.942-4.0718-1.812-6.6325-1.812-4.3084 0-9.5351 1.236-9.5351 6.114 0 6.254 15.929 5.584 15.929 10.578 0 2.442-3.113 3.174-6.226 3.174-4.007 0-6.4626-2.914-7.0411-6.078h-2.6215v6.918l2.6558-1.42c2.3362 1.21 4.3145 1.9 6.8631 1.9 5.7263 0 10.217-1.81 10.217-6.298 0-7.568-15.664-6.808-15.664-10.762z" mask="url(#a)"/>
</g>
<path d="m86.619 55.4c-2.666 3.858-6.3433 5.468-9.7394 5.766-5.874 0.502-10.767-2.568-13.686-5.158 0.018204 0.756-0.10114 1.858-0.33982 3.52-1.5352-0.88-2.8682-1.402-3.8938-1.714 0.37623-4.224 0.33375-7.754 0.29127-9.234v-2.186h1.9095c0.98709 3.52 4.5754 6.806 8.6229 8.544 3.7967 1.632 7.9979 1.386 11.214-1.308 2.223-1.878 3.2728-7.154 0.9082-10.66-0.48343-0.704-1.1489-1.362-1.9358-1.984h6.9096c0.60277 0.904 1.2359 2.162 1.4402 3.03 0.86168 3.478 0.55625 8.13-1.7011 11.384"/>
<path d="m66.123 71.85c-3.0988-5.244-9.1306-9.762-13.506-8.184-1.4988 0.536-2.2533 1.898-2.229 3.238 0.016182 1.812 1.2743 3.56 3.9221 3.346 0.55018-0.046 1.4018-0.328 1.8953-0.724 0.91832-0.754 1.3471-1.874 1.5474-2.626 0.88595 0.438 2.0834 1.274 3.0139 2.24-1.7173 3.882-7.2677 5.082-10.763 2.992-1.9641-1.164-3.3618-3.398-2.9491-6.694 0.30139-2.462 1.8285-4.072 3.5984-5.148 2.14-1.308 4.721-1.502 7.8745-0.708 3.5013 0.88 6.5516 3.112 7.6216 4.666 0.62098-0.75 1.3593-1.966 1.8973-2.934 1.1327 0.588 3.0462 1.38 5.1054 1.62-1.0073 2.396-4.8202 7.532-7.029 8.916"/>
<path d="m62.403 17.514c5.0548-6.096 14.515-5.732 20.023-1.776 0.2407 0.164 1.5373 1.122 1.7557 1.302l6.7822-2.008s-7.9473 7.878-8.0039 7.878c-3.2262-5.506-13.364-7.854-16.388-1.772-1.5535 3.126-1.2076 6.62 2.6134 8.936v5.944c-0.63918-0.28-1.2865-0.552-1.8872-0.868-9.4077-4.932-8.1435-13.708-4.895-17.636"/>
<g transform="translate(63.705)">
<polyline points="35.674 24.678 35.674 27.372 32.045 27.372 32.064 31.628 26.683 31.628 26.683 27.372 22.184 27.372 32.045 17.632 32.045 24.678 35.674 24.678"/>
<path d="m0.98227 0.842c0.55423 2.316 2.7813 5.022 11.536 5.022 9.5918 0 17.169 0.042 18.904 0.038 15.808-0.02 17.387 13.47 17.387 16.406 0 3.704-0.58861 11.53-8.459 15.258-1.3572 0.65-2.3261 1.08-4.1567 1.542 3.0159 1.732 5.6596 7.612 8.2467 13.804 1.6688 3.984 3.1049 7.914 4.7817 10.528 0.96484 1.476 2.3767 3.146 3.736 3.794 0.62098 0.3 1.513 0.38 2.223 0.41 1.6242 0.028 2.6498-0.782 3.113-1.588-1.5332 0.784-3.291-0.166-3.8189-1.476-0.51984-1.236-0.35398-2.346 0.28925-3.354 0.77066-1.214 1.96-1.706 3.4852-1.616 4.4925 0.232 4.5572 5.24 4.5572 5.24-0.072818 2.822-0.96484 4.784-2.9431 6.236-1.2804 0.94-2.761 1.558-4.9314 1.644-4.7453 0.2-10.468-2.76-15.466-17.684-1.8387-5.502-4.7312-11.142-7.7733-13.456-1.4119-1.078-3.9868-2.66-7.6742-2.66l-10.973-0.02s-0.1598 3.012-0.14159 3.764c0.050568 1.706-0.54614 10.116-1.068 11.15-1.2682 0.248-4.626-0.454-5.2146-1.126 0.75245-2.908 0.94866-6.46 1.0579-12.668 0.012136-0.836 0.012136-1.188 0.012136-1.188s-0.034386-18.76-0.034386-18.78c0.97495-0.466 4.27-0.064 5.3299 0.842 0.0040454 0.026 0.02225 12.678 0.02225 12.678s13.202-0.018 18.767-0.018c7.8927 0 11.732-4.726 11.732-11.256 0-6.536-4.3448-11.074-12.104-11.074h-18.88l-3.0786-8e-3c-5.0467 0-10.724-4.564-8.4631-10.384"/>
</g>
<polyline points="116.69 44.374 112.25 48.758 107.81 44.374 112.25 39.982 116.69 44.374"/>
<path d="m90.402 70.182v-28.64c1.5899 0.036 4.8869 2.364 5.3279 3.288v15.616l3.6268-3.462 2.3949 2.262-11.35 10.936"/>
</g>
</g>
</g>
</svg>